# 3ds Max Wavefront OBJ Exporter v0.97b - (c)2007 guruware
# File Created: 25.02.2017 00:02:34

#
# object mandarin_low014
#

v  0.3701 19.3231 -6.8215
v  -4.1055 20.4840 -21.1222
v  -10.6576 20.5710 -16.9567
v  -14.2499 20.5762 -10.0731
v  -13.9200 20.4982 -2.3159
v  -9.7562 20.3580 4.2363
v  -2.8742 20.1930 7.8279
v  4.8819 20.0475 7.4966
v  11.4339 19.9604 3.3311
v  15.0263 19.9552 -3.5525
v  14.6964 20.0332 -11.3097
v  10.5326 20.1734 -17.8619
v  3.6506 20.3384 -21.4536
v  -18.9077 12.2292 -24.4616
v  -7.5592 12.0784 -31.6765
v  -25.1298 12.2382 -12.5389
v  -24.5584 12.1032 0.8969
v  -17.3465 11.8602 12.2457
v  -5.4266 11.5744 18.4666
v  8.0074 11.3224 17.8927
v  19.3559 11.1717 10.6778
v  25.5781 11.1626 -1.2449
v  25.0066 11.2976 -14.6807
v  17.7947 11.5406 -26.0295
v  5.8748 11.8264 -32.2504
v  -22.0915 0.6105 -27.2877
v  -8.9874 0.4365 -35.6188
v  -29.2762 0.6210 -13.5206
v  -28.6164 0.4651 1.9937
v  -20.2888 0.1845 15.0982
v  -6.5249 -0.1455 22.2815
v  8.9874 -0.4365 21.6188
v  22.0915 -0.6105 13.2877
v  29.2762 -0.6210 -0.4794
v  28.6164 -0.4651 -15.9937
v  20.2888 -0.1845 -29.0982
v  6.5249 0.1455 -36.2815
v  -19.3559 -11.1717 -24.6778
v  -8.0075 -11.3224 -31.8927
v  -25.5781 -11.1626 -12.7551
v  -25.0066 -11.2977 0.6807
v  -17.7947 -11.5406 12.0295
v  -5.8748 -11.8264 18.2504
v  7.5592 -12.0784 17.6765
v  18.9077 -12.2292 10.4616
v  25.1298 -12.2382 -1.4611
v  24.5584 -12.1032 -14.8969
v  17.3465 -11.8602 -26.2457
v  5.4266 -11.5744 -32.4666
v  -11.4339 -19.9604 -17.3311
v  -4.8819 -20.0475 -21.4966
v  -15.0263 -19.9552 -10.4475
v  -14.6964 -20.0332 -2.6903
v  -10.5326 -20.1734 3.8619
v  -3.6506 -20.3384 7.4536
v  4.1055 -20.4840 7.1222
v  10.6576 -20.5710 2.9567
v  14.2499 -20.5762 -3.9269
v  13.9200 -20.4982 -11.6841
v  9.7562 -20.3580 -18.2363
v  2.8742 -20.1930 -21.8279
# 61 vertices

vn 0.0192 0.9998 0.0092
vn -0.0861 0.9426 -0.3227
vn -0.2378 0.9446 -0.2263
vn -0.3210 0.9447 -0.0668
vn -0.3134 0.9429 0.1128
vn -0.2170 0.9397 0.2645
vn -0.0576 0.9358 0.3477
vn 0.1220 0.9325 0.3400
vn 0.2738 0.9304 0.2436
vn 0.3570 0.9303 0.0842
vn 0.3493 0.9321 -0.0955
vn 0.2529 0.9354 -0.2472
vn 0.0935 0.9392 -0.3304
vn -0.5997 0.5761 -0.5554
vn -0.2376 0.5713 -0.7856
vn -0.7982 0.5764 -0.1750
vn -0.7800 0.5721 0.2537
vn -0.5499 0.5644 0.6157
vn -0.1696 0.5553 0.8142
vn 0.2590 0.5472 0.7959
vn 0.6211 0.5424 0.5657
vn 0.8196 0.5421 0.1853
vn 0.8014 0.5464 -0.2433
vn 0.5713 0.5542 -0.6054
vn 0.1910 0.5633 -0.8039
vn -0.7364 0.0204 -0.6763
vn -0.2996 0.0145 -0.9540
vn -0.9759 0.0207 -0.2174
vn -0.9539 0.0155 0.2998
vn -0.6763 0.0062 0.7366
vn -0.2175 -0.0048 0.9760
vn 0.2996 -0.0145 0.9540
vn 0.7364 -0.0204 0.6763
vn 0.9759 -0.0207 0.2174
vn 0.9539 -0.0155 -0.2998
vn 0.6763 -0.0062 -0.7366
vn 0.2175 0.0048 -0.9760
vn -0.6211 -0.5424 -0.5657
vn -0.2590 -0.5472 -0.7959
vn -0.8196 -0.5421 -0.1853
vn -0.8014 -0.5464 0.2433
vn -0.5713 -0.5542 0.6054
vn -0.1910 -0.5633 0.8039
vn 0.2376 -0.5713 0.7856
vn 0.5997 -0.5761 0.5554
vn 0.7982 -0.5764 0.1750
vn 0.7800 -0.5721 -0.2537
vn 0.5499 -0.5644 -0.6157
vn 0.1696 -0.5553 -0.8142
vn -0.2917 -0.9205 -0.2601
vn -0.1292 -0.9226 -0.3634
vn -0.3807 -0.9204 -0.0894
vn -0.3725 -0.9223 0.1029
vn -0.2693 -0.9258 0.2654
vn -0.0987 -0.9299 0.3544
vn 0.0936 -0.9335 0.3462
vn 0.2561 -0.9356 0.2429
vn 0.3452 -0.9358 0.0723
vn 0.3370 -0.9338 -0.1201
vn 0.2338 -0.9303 -0.2825
vn 0.0631 -0.9263 -0.3716
# 61 vertex normals

vt 0.5100 0.4982 0.0000
vt 0.5379 0.3970 0.0000
vt 0.5859 0.4241 0.0000
vt 0.6125 0.4710 0.0000
vt 0.6112 0.5261 0.0000
vt 0.5841 0.5741 0.0000
vt 0.5372 0.6008 0.0000
vt 0.4821 0.5995 0.0000
vt 0.4341 0.5724 0.0000
vt 0.4074 0.5254 0.0000
vt 0.4087 0.4703 0.0000
vt 0.4358 0.4223 0.0000
vt 0.4828 0.3957 0.0000
vt 0.6579 0.3540 0.0000
vt 0.5635 0.3040 0.0000
vt 0.7096 0.4450 0.0000
vt 0.7042 0.5517 0.0000
vt 0.6542 0.6461 0.0000
vt 0.5632 0.6978 0.0000
vt 0.4565 0.6924 0.0000
vt 0.3621 0.6424 0.0000
vt 0.3104 0.5515 0.0000
vt 0.3158 0.4447 0.0000
vt 0.3658 0.3503 0.0000
vt 0.4567 0.2986 0.0000
vt 0.7192 0.2877 0.0000
vt 0.5843 0.2282 0.0000
vt 0.7979 0.4263 0.0000
vt 0.7800 0.5726 0.0000
vt 0.7205 0.7075 0.0000
vt 0.5819 0.7862 0.0000
vt 0.4356 0.7683 0.0000
vt 0.3007 0.7087 0.0000
vt 0.2220 0.5702 0.0000
vt 0.2400 0.4239 0.0000
vt 0.2995 0.2890 0.0000
vt 0.4380 0.2103 0.0000
vt 0.7202 0.1727 0.0000
vt 0.6080 0.1424 0.0000
vt 0.8725 0.3550 0.0000
vt 0.8186 0.2601 0.0000
vt 0.8658 0.5962 0.0000
vt 0.8972 0.4843 0.0000
vt 0.8355 0.7084 0.0000
vt 0.6532 0.8608 0.0000
vt 0.7481 0.8069 0.0000
vt 0.4120 0.8540 0.0000
vt 0.5239 0.8855 0.0000
vt 0.2998 0.8238 0.0000
vt 0.1474 0.6414 0.0000
vt 0.2013 0.7363 0.0000
vt 0.1542 0.4002 0.0000
vt 0.1227 0.5121 0.0000
vt 0.1844 0.2880 0.0000
vt 0.3668 0.1357 0.0000
vt 0.2719 0.1896 0.0000
vt 0.4961 0.1110 0.0000
vt 0.7233 0.0589 0.0000
vt 0.6625 0.0425 0.0000
vt 0.9573 0.2803 0.0000
vt 0.9262 0.2255 0.0000
vt 0.9795 0.6005 0.0000
vt 0.9966 0.5399 0.0000
vt 0.9493 0.7115 0.0000
vt 0.9657 0.6507 0.0000
vt 0.7279 0.9456 0.0000
vt 0.7827 0.9145 0.0000
vt 0.4076 0.9677 0.0000
vt 0.4683 0.9848 0.0000
vt 0.2966 0.9375 0.0000
vt 0.3575 0.9539 0.0000
vt 0.0626 0.7161 0.0000
vt 0.0937 0.7709 0.0000
vt 0.0405 0.3959 0.0000
vt 0.0234 0.4566 0.0000
vt 0.0707 0.2849 0.0000
vt 0.0543 0.3457 0.0000
vt 0.2921 0.0509 0.0000
vt 0.2373 0.0820 0.0000
vt 0.6123 0.0287 0.0000
vt 0.5516 0.0116 0.0000
vt 0.2544 0.9124 0.0000
vt 0.2274 0.9584 0.0000
vt 0.1811 0.9847 0.0000
vt 0.1277 0.9844 0.0000
vt 0.2548 0.8591 0.0000
vt 0.0554 0.9110 0.0000
vt 0.1825 0.7857 0.0000
vt 0.2285 0.8127 0.0000
vt 0.0818 0.9574 0.0000
vt 0.0828 0.8117 0.0000
vt 0.1292 0.7854 0.0000
vt 0.0558 0.8577 0.0000
# 93 texture coords

g mandarin_low014
s 2049
f 1/1/1 2/2/2 3/3/3 
f 1/1/1 3/3/3 4/4/4 
f 1/1/1 4/4/4 5/5/5 
f 1/1/1 5/5/5 6/6/6 
f 1/1/1 6/6/6 7/7/7 
f 1/1/1 7/7/7 8/8/8 
f 1/1/1 8/8/8 9/9/9 
f 1/1/1 9/9/9 10/10/10 
f 1/1/1 10/10/10 11/11/11 
f 1/1/1 11/11/11 12/12/12 
f 1/1/1 12/12/12 13/13/13 
f 1/1/1 13/13/13 2/2/2 
f 14/14/14 3/3/3 2/2/2 15/15/15 
f 16/16/16 4/4/4 3/3/3 14/14/14 
f 17/17/17 5/5/5 4/4/4 16/16/16 
f 18/18/18 6/6/6 5/5/5 17/17/17 
f 19/19/19 7/7/7 6/6/6 18/18/18 
f 20/20/20 8/8/8 7/7/7 19/19/19 
f 21/21/21 9/9/9 8/8/8 20/20/20 
f 22/22/22 10/10/10 9/9/9 21/21/21 
f 23/23/23 11/11/11 10/10/10 22/22/22 
f 24/24/24 12/12/12 11/11/11 23/23/23 
f 25/25/25 13/13/13 12/12/12 24/24/24 
f 15/15/15 2/2/2 13/13/13 25/25/25 
f 26/26/26 14/14/14 15/15/15 27/27/27 
f 28/28/28 16/16/16 14/14/14 26/26/26 
f 29/29/29 17/17/17 16/16/16 28/28/28 
f 30/30/30 18/18/18 17/17/17 29/29/29 
f 31/31/31 19/19/19 18/18/18 30/30/30 
f 32/32/32 20/20/20 19/19/19 31/31/31 
f 33/33/33 21/21/21 20/20/20 32/32/32 
f 34/34/34 22/22/22 21/21/21 33/33/33 
f 35/35/35 23/23/23 22/22/22 34/34/34 
f 36/36/36 24/24/24 23/23/23 35/35/35 
f 37/37/37 25/25/25 24/24/24 36/36/36 
f 27/27/27 15/15/15 25/25/25 37/37/37 
f 38/38/38 26/26/26 27/27/27 39/39/39 
f 40/40/40 28/28/28 26/26/26 38/41/38 
f 41/42/41 29/29/29 28/28/28 40/43/40 
f 42/44/42 30/30/30 29/29/29 41/42/41 
f 43/45/43 31/31/31 30/30/30 42/46/42 
f 44/47/44 32/32/32 31/31/31 43/48/43 
f 45/49/45 33/33/33 32/32/32 44/47/44 
f 46/50/46 34/34/34 33/33/33 45/51/45 
f 47/52/47 35/35/35 34/34/34 46/53/46 
f 48/54/48 36/36/36 35/35/35 47/52/47 
f 49/55/49 37/37/37 36/36/36 48/56/48 
f 39/39/39 27/27/27 37/37/37 49/57/49 
f 50/58/50 38/38/38 39/39/39 51/59/51 
f 52/60/52 40/40/40 38/41/38 50/61/50 
f 53/62/53 41/42/41 40/43/40 52/63/52 
f 54/64/54 42/44/42 41/42/41 53/65/53 
f 55/66/55 43/45/43 42/46/42 54/67/54 
f 56/68/56 44/47/44 43/48/43 55/69/55 
f 57/70/57 45/49/45 44/47/44 56/71/56 
f 58/72/58 46/50/46 45/51/45 57/73/57 
f 59/74/59 47/52/47 46/53/46 58/75/58 
f 60/76/60 48/54/48 47/52/47 59/77/59 
f 61/78/61 49/55/49 48/56/48 60/79/60 
f 51/80/51 39/39/39 49/57/49 61/81/61 
s 2048
f 53/82/53 52/83/52 50/84/50 51/85/51 54/86/54 
f 60/87/60 56/88/56 55/89/55 61/90/61 
f 61/90/61 55/89/55 54/86/54 51/85/51 
f 58/91/58 57/92/57 56/88/56 60/87/60 59/93/59 
# 52 polygons - 12 triangles

